{"title":"Strade Perdute Lost Highway HDMux 720p ITA AC3 ENG DTS Multisub","uid":9046336,"size":4833498697,"categoryP":"video","categoryS":"hd___movies","magnet":"?xt=urn:btih:820d4b4df4d837ef29b266a8735f4d2720bdb66d&amp;dn=Strade+Perdute+Lost+Highway+HDMux+720p+ITA+AC3+ENG+DTS+Multisub+&amp;tr=udp%3A%2F%2Ftracker.openbittorrent.com%3A80&amp;tr=udp%3A%2F%2Fopen.demonii.com%3A1337&amp;tr=udp%3A%2F%2Ftracker.coppersurfer.tk%3A6969&amp;tr=udp%3A%2F%2Fexodus.desync.com%3A6969","seeders":7,"leechers":1,"uploader":"OrgazmoITA","files":1,"time":1381761546,"description":"General\nUnique ID: 253173068936661877968204568474029282742 (0xBE775C056C5DE0072333D72A0C0255B6)\nComplete name: Strade.Perdute.Lost.Highway.HDMux.720p.x264.ITA-AC3.ENG-DTS.Multisub.Orgazmo.mkv\nFormat: Matroska\nFormat version: Version 4 / Version 2\nFile size: 4.50 GiB\nDuration: 2h 14mn\nOverall bit rate: 4 805 Kbps\nEncoded date: UTC 2013-10-13 23:23:39\nWriting application: mkvmerge v6.2.0 ('Promised Land') built on Apr 28 2013 18:50:30\nWriting library: libebml v1.3.0 + libmatroska v1.4.0\n\nVideo\nID: 1\nFormat: AVC\nFormat/Info: Advanced Video Codec\nFormat profile: &lt;a class=&quot;__cf_email__&quot; href=&quot;/cdn-cgi/l/email-protection&quot; data-cfemail=&quot;c48cada3ac8488f0eaf4&quot;&gt;[email&amp;#160;protected]&lt;/a&gt;&lt;script cf-hash='f9e31' type=&quot;text/javascript&quot;&gt;\n/* &lt;![CDATA[ */!function(){try{var t=&quot;currentScript&quot;in document?document.currentScript:function(){for(var t=document.getElementsByTagName(&quot;script&quot;),e=t.length;e--;)if(t[e].getAttribute(&quot;cf-hash&quot;))return t[e]}();if(t&amp;&amp;t.previousSibling){var e,r,n,i,c=t.previousSibling,a=c.getAttribute(&quot;data-cfemail&quot;);if(a){for(e=&quot;&quot;,r=parseInt(a.substr(0,2),16),n=2;a.length-n;n+=2)i=parseInt(a.substr(n,2),16)^r,e+=String.fromCharCode(i);e=document.createTextNode(e),c.parentNode.replaceChild(e,c)}}}catch(u){}}();/* ]]&gt; */&lt;/script&gt;\nFormat settings, CABAC: Yes\nFormat settings, ReFrames: 9 frames\nCodec ID: V_MPEG4/ISO/AVC\nDuration: 2h 14mn\nBit rate: 3 600 Kbps\nWidth: 1 280 pixels\nHeight: 544 pixels\nDisplay aspect ratio: 2.35:1\nFrame rate mode: Constant\nFrame rate: 24.000 fps\nColor space: YUV\nChroma subsampling: 4:2:0\nBit depth: 8 bits\nScan type: Progressive\nBits/(Pixel*Frame): 0.215\nStream size: 3.29 GiB (73%)\nTitle: Strade Perdute (1997) BDMux 720p - ORGAZMO\nWriting library: x264 core 120\nEncoding settings: cabac=1 // deblock=1:-3:-3 / analyse=0x3:0x133 / me=umh / subme=10 / psy=1 / psy_rd=1.00:0.00 // me_range=128 / chroma_me=1 / trellis=2 / 8x8dct=1 / cqm=0 / deadzone=21,11 / fast_pskip=1 / chroma_qp_offset=-2 / threads=12 / sliced_threads=0 / nr=0 / decimate=1 / interlaced=0 / bluray_compat=0 / constrained_intra=0 / bframes=9 / b_pyramid=2 / b_adapt=2 / b_bias=0 / direct=3 / weightb=1 / open_gop=0 / weightp=2 / keyint=240 / keyint_min=24 / scenecut=40 / intra_refresh=0 / rc_lookahead=120 / rc=2pass / mbtree=1 / bitrate=3600 / ratetol=1.0 / qcomp=0.60 / qpmin=3 / qpmax=69 / qpstep=4 / cplxblur=20.0 / qblur=0.5 / ip_ratio=1.40 / aq=1:1.00\nLanguage: English\nDefault: Yes\nForced: No\nColor primaries: BT.709\nTransfer characteristics: BT.709\nMatrix coefficients: BT.709\n\nAudio #1\nID: 2\nFormat: AC-3\nFormat/Info: Audio Coding 3\nMode extension: CM (complete main)\nFormat settings, Endianness: Big\nCodec ID: A_AC3\nDuration: 2h 14mn\nBit rate mode: Constant\nBit rate: 448 Kbps\nChannel count: 6 channels\nChannel positions: Front: L C R, Side: L R, LFE\nSampling rate: 48.0 KHz\nBit depth: 16 bits\nCompression mode: Lossy\nStream size: 430 MiB (9%)\nTitle: Italiano AC3 5.1\nLanguage: Italian\nDefault: Yes\nForced: No\n\nAudio #2\nID: 3\nFormat: DTS\nFormat/Info: Digital Theater Systems\nMode: 16\nFormat settings, Endianness: Big\nCodec ID: A_DTS\nDuration: 2h 14mn\nBit rate mode: Constant\nBit rate: 754 Kbps\nChannel count: 6 channels\nChannel positions: Front: L C R, Side: L R, LFE\nSampling rate: 48.0 KHz\nBit depth: 24 bits\nCompression mode: Lossy\nStream size: 724 MiB (16%)\nTitle: English DTS 5.1\nLanguage: English\nDefault: No\nForced: No\n\nText #1\nID: 4\nFormat: UTF-8\nCodec ID: S_TEXT/UTF8\nCodec ID/Info: UTF-8 Plain Text\nTitle: Italiano\nLanguage: Italian\nDefault: Yes\nForced: No\n\nText #2\nID: 5\nFormat: UTF-8\nCodec ID: S_TEXT/UTF8\nCodec ID/Info: UTF-8 Plain Text\nTitle: English\nLanguage: English\nDefault: No\nForced: No\n\nText #3\nID: 6\nFormat: ASS\nCodec ID: S_TEXT/ASS\nCodec ID/Info: Advanced Sub Station Alpha\nCompression mode: Lossless\nTitle: Francais\nLanguage: French\nDefault: No\nForced: No\n\nText #4\nID: 7\nFormat: ASS\nCodec ID: S_TEXT/ASS\nCodec ID/Info: Advanced Sub Station Alpha\nCompression mode: Lossless\nTitle: German\nLanguage: German\nDefault: No\nForced: No\n\nText #5\nID: 8\nFormat: ASS\nCodec ID: S_TEXT/ASS\nCodec ID/Info: Advanced Sub Station Alpha\nCompression mode: Lossless\nTitle: Espanol\nLanguage: Spanish\nDefault: No\nForced: No\n\nText #6\nID: 9\nFormat: ASS\nCodec ID: S_TEXT/ASS\nCodec ID/Info: Advanced Sub Station Alpha\nCompression mode: Lossless\nTitle: Danish\nLanguage: Danish\nDefault: No\nForced: No\n\nText #7\nID: 10\nFormat: ASS\nCodec ID: S_TEXT/ASS\nCodec ID/Info: Advanced Sub Station Alpha\nCompression mode: Lossless\nTitle: Finnish\nLanguage: Finnish\nDefault: No\nForced: No\n\nText #8\nID: 11\nFormat: UTF-8\nCodec ID: S_TEXT/UTF8\nCodec ID/Info: UTF-8 Plain Text\nTitle: Czech\nLanguage: Czech\nDefault: No\nForced: No","torrent":{"xt":"urn:btih:820d4b4df4d837ef29b266a8735f4d2720bdb66d","amp;dn":"Strade+Perdute+Lost+Highway+HDMux+720p+ITA+AC3+ENG+DTS+Multisub+","amp;tr":["udp%3A%2F%2Ftracker.openbittorrent.com%3A80","udp%3A%2F%2Fopen.demonii.com%3A1337","udp%3A%2F%2Ftracker.coppersurfer.tk%3A6969","udp%3A%2F%2Fexodus.desync.com%3A6969"],"infoHash":"820d4b4df4d837ef29b266a8735f4d2720bdb66d","infoHashBuffer":{"type":"Buffer","data":[130,13,75,77,244,216,55,239,41,178,102,168,115,95,77,39,32,189,182,109]},"announce":[],"urlList":[]}}